<?xml version="1.0" encoding="UTF-8" standalone="no"?>
<!-- Created with Inkscape (http://www.inkscape.org/) -->

<svg
   xmlns:dc="http://purl.org/dc/elements/1.1/"
   xmlns:cc="http://creativecommons.org/ns#"
   xmlns:rdf="http://www.w3.org/1999/02/22-rdf-syntax-ns#"
   xmlns:svg="http://www.w3.org/2000/svg"
   xmlns="http://www.w3.org/2000/svg"
   xmlns:sodipodi="http://sodipodi.sourceforge.net/DTD/sodipodi-0.dtd"
   xmlns:inkscape="http://www.inkscape.org/namespaces/inkscape"
   width="188.8054"
   height="193.05376"
   id="svg3829"
   version="1.1"
   inkscape:version="0.48.3.1 r9886"
   sodipodi:docname="Neues Dokument 6">
  <defs
     id="defs3831" />
  <sodipodi:namedview
     id="base"
     pagecolor="#ffffff"
     bordercolor="#666666"
     borderopacity="1.0"
     inkscape:pageopacity="0.0"
     inkscape:pageshadow="2"
     inkscape:zoom="0.35"
     inkscape:cx="313.08598"
     inkscape:cy="-27.758843"
     inkscape:document-units="px"
     inkscape:current-layer="layer1"
     showgrid="false"
     fit-margin-top="0"
     fit-margin-left="0"
     fit-margin-right="0"
     fit-margin-bottom="0"
     inkscape:window-width="1229"
     inkscape:window-height="1000"
     inkscape:window-x="51"
     inkscape:window-y="24"
     inkscape:window-maximized="1" />
  <metadata
     id="metadata3834">
    <rdf:RDF>
      <cc:Work
         rdf:about="">
        <dc:format>image/svg+xml</dc:format>
        <dc:type
           rdf:resource="http://purl.org/dc/dcmitype/StillImage" />
        <dc:title></dc:title>
      </cc:Work>
    </rdf:RDF>
  </metadata>
  <g
     inkscape:label="Ebene 1"
     inkscape:groupmode="layer"
     id="layer1"
     transform="translate(-36.914018,-311.54959)">
    <path
       inkscape:connector-curvature="0"
       d="m 36.914018,504.60334 174.814102,0 0,-193.05375 -174.814102,0 0,193.05375 z"
       style="fill:#231f20;fill-opacity:1;fill-rule:nonzero;stroke:none"
       id="path318" />
    <g
       id="g320"
       transform="matrix(4.5485416,0,0,-4.5485416,74.002826,475.36531)">
      <path
         inkscape:connector-curvature="0"
         d="m 0,0 c 0,1.154 0.087,2.211 -0.781,3.074 -0.51,0.507 -1.237,0.733 -2.039,0.733 l -2.788,0 0,-7.679 2.788,0 c 0.802,0 1.529,0.227 2.039,0.734 C 0.087,-2.276 0,-1.154 0,0 z m -1.508,0 c 0,-1.165 -0.043,-1.715 -0.325,-2.06 -0.261,-0.313 -0.608,-0.474 -1.128,-0.474 l -1.139,0 0,5.004 1.139,0 c 0.52,0 0.867,-0.162 1.128,-0.475 C -1.551,1.65 -1.508,1.165 -1.508,0"
         style="fill:#ffffff;fill-opacity:1;fill-rule:evenodd;stroke:none"
         id="path322" />
    </g>
    <g
       id="g324"
       transform="matrix(4.5485416,0,0,-4.5485416,112.52442,492.97727)">
      <path
         inkscape:connector-curvature="0"
         d="m 0,0 -1.725,3.311 c 0.749,0.27 1.411,0.938 1.411,2.017 0,1.283 -0.933,2.351 -2.506,2.351 l -3.026,0 0,-7.679 1.507,0 0,3.063 1.085,0 L -1.746,0 0,0 z m -1.822,5.328 c 0,-0.594 -0.434,-1.014 -1.096,-1.014 l -1.421,0 0,2.027 1.421,0 c 0.662,0 1.096,-0.42 1.096,-1.013"
         style="fill:#ffffff;fill-opacity:1;fill-rule:evenodd;stroke:none"
         id="path326" />
    </g>
    <path
       inkscape:connector-curvature="0"
       d="m 123.11798,492.97727 6.85829,0 0,-34.92734 -6.85829,0 0,34.92734 z"
       style="fill:#ffffff;fill-opacity:1;fill-rule:nonzero;stroke:none"
       id="path328" />
    <g
       id="g330"
       transform="matrix(4.5485416,0,0,-4.5485416,167.50265,458.04902)">
      <path
         inkscape:connector-curvature="0"
         d="M 0,0 -1.573,0 -3.124,-5.004 -4.675,0 l -1.562,0 2.549,-7.679 1.128,0 L 0,0"
         style="fill:#ffffff;fill-opacity:1;fill-rule:nonzero;stroke:none"
         id="path332" />
    </g>
    <g
       id="g334"
       transform="matrix(4.5485416,0,0,-4.5485416,199.80184,492.97727)">
      <path
         inkscape:connector-curvature="0"
         d="m 0,0 0,1.337 -3.579,0 0,1.866 3.048,0 0,1.337 -3.048,0 0,1.801 3.579,0 0,1.338 -5.087,0 L -5.087,0 0,0"
         style="fill:#ffffff;fill-opacity:1;fill-rule:nonzero;stroke:none"
         id="path336" />
    </g>
    <g
       id="g338"
       transform="matrix(4.5485416,0,0,-4.5485416,77.941863,448.01039)">
      <path
         inkscape:connector-curvature="0"
         d="m 0,0 -2.82,7.679 -1.182,0 -2.81,-7.679 1.573,0 0.466,1.359 2.745,0 L -1.573,0 0,0 z m -2.43,2.621 -1.92,0 0.977,2.793 0.943,-2.793"
         style="fill:#ee3224;fill-opacity:1;fill-rule:evenodd;stroke:none"
         id="path340" />
    </g>
    <g
       id="g342"
       transform="matrix(4.5485416,0,0,-4.5485416,111.13712,448.01039)">
      <path
         inkscape:connector-curvature="0"
         d="m 0,0 0,7.679 -1.508,0 0,-4.702 -3.059,4.702 -1.345,0 0,-7.679 1.508,0 0,4.713 L -1.345,0 0,0"
         style="fill:#ee3224;fill-opacity:1;fill-rule:nonzero;stroke:none"
         id="path344" />
    </g>
    <g
       id="g346"
       transform="matrix(4.5485416,0,0,-4.5485416,146.80223,430.39843)">
      <path
         inkscape:connector-curvature="0"
         d="m 0,0 c 0,1.154 0.087,2.211 -0.781,3.074 -0.51,0.507 -1.237,0.733 -2.039,0.733 l -2.788,0 0,-7.679 2.788,0 c 0.802,0 1.529,0.227 2.039,0.734 C 0.087,-2.276 0,-1.154 0,0 z m -1.508,0 c 0,-1.165 -0.043,-1.715 -0.325,-2.06 -0.261,-0.313 -0.608,-0.474 -1.128,-0.474 l -1.139,0 0,5.004 1.139,0 c 0.52,0 0.867,-0.162 1.128,-0.475 C -1.551,1.65 -1.508,1.165 -1.508,0"
         style="fill:#ee3224;fill-opacity:1;fill-rule:evenodd;stroke:none"
         id="path348" />
    </g>
    <g
       id="g350"
       transform="matrix(4.5485416,0,0,-4.5485416,74.002826,385.43155)">
      <path
         inkscape:connector-curvature="0"
         d="m 0,0 c 0,1.154 0.087,2.211 -0.781,3.074 -0.51,0.507 -1.237,0.733 -2.039,0.733 l -2.788,0 0,-7.679 2.788,0 c 0.802,0 1.529,0.227 2.039,0.734 C 0.087,-2.276 0,-1.154 0,0 z m -1.508,0 c 0,-1.165 -0.043,-1.715 -0.325,-2.06 -0.261,-0.313 -0.608,-0.474 -1.128,-0.474 l -1.139,0 0,5.004 1.139,0 c 0.52,0 0.867,-0.162 1.128,-0.475 C -1.551,1.65 -1.508,1.165 -1.508,0"
         style="fill:#ffffff;fill-opacity:1;fill-rule:evenodd;stroke:none"
         id="path352" />
    </g>
    <g
       id="g354"
       transform="matrix(4.5485416,0,0,-4.5485416,110.15463,403.0435)">
      <path
         inkscape:connector-curvature="0"
         d="m 0,0 -1.725,3.311 c 0.749,0.27 1.411,0.938 1.411,2.017 0,1.283 -0.933,2.351 -2.506,2.351 l -3.026,0 0,-7.679 1.507,0 0,3.063 1.085,0 L -1.746,0 0,0 z m -1.822,5.328 c 0,-0.594 -0.434,-1.014 -1.096,-1.014 l -1.421,0 0,2.027 1.421,0 c 0.662,0 1.096,-0.42 1.096,-1.013"
         style="fill:#ffffff;fill-opacity:1;fill-rule:evenodd;stroke:none"
         id="path356" />
    </g>
    <path
       inkscape:connector-curvature="0"
       d="m 118.87419,403.0435 6.85829,0 0,-34.92734 -6.85829,0 0,34.92734 z"
       style="fill:#ffffff;fill-opacity:1;fill-rule:nonzero;stroke:none"
       id="path358" />
    <g
       id="g360"
       transform="matrix(4.5485416,0,0,-4.5485416,163.35893,403.0435)">
      <path
         inkscape:connector-curvature="0"
         d="m 0,0 0,7.679 -1.508,0 0,-4.702 -3.059,4.702 -1.345,0 0,-7.679 1.508,0 0,4.713 L -1.345,0 0,0"
         style="fill:#ffffff;fill-opacity:1;fill-rule:nonzero;stroke:none"
         id="path362" />
    </g>
    <g
       id="g364"
       transform="matrix(4.5485416,0,0,-4.5485416,202.52642,403.0435)">
      <path
         inkscape:connector-curvature="0"
         d="m 0,0 -2.744,4.627 2.56,3.052 -1.833,0 -2.723,-3.344 0,3.344 -1.508,0 0,-7.679 1.508,0 0,2.308 0.998,1.186 L -1.757,0 0,0"
         style="fill:#ffffff;fill-opacity:1;fill-rule:nonzero;stroke:none"
         id="path366" />
    </g>
    <g
       id="g368"
       transform="matrix(4.5485416,0,0,-4.5485416,74.002826,340.46467)">
      <path
         inkscape:connector-curvature="0"
         d="m 0,0 c 0,1.154 0.087,2.211 -0.781,3.074 -0.51,0.507 -1.237,0.733 -2.039,0.733 l -2.788,0 0,-7.679 2.788,0 c 0.802,0 1.529,0.227 2.039,0.734 C 0.087,-2.276 0,-1.154 0,0 z m -1.508,0 c 0,-1.165 -0.043,-1.715 -0.325,-2.06 -0.261,-0.313 -0.608,-0.474 -1.128,-0.474 l -1.139,0 0,5.004 1.139,0 c 0.52,0 0.867,-0.162 1.128,-0.475 C -1.551,1.65 -1.508,1.165 -1.508,0"
         style="fill:#ffffff;fill-opacity:1;fill-rule:evenodd;stroke:none"
         id="path370" />
    </g>
    <g
       id="g372"
       transform="matrix(4.5485416,0,0,-4.5485416,110.69591,340.61022)">
      <path
         inkscape:connector-curvature="0"
         d="M 0,0 C 0,1.327 0.011,2.286 -0.77,3.063 -1.312,3.602 -1.974,3.904 -2.853,3.904 -3.731,3.904 -4.404,3.602 -4.946,3.063 -5.727,2.286 -5.705,1.327 -5.705,0 c 0,-1.327 -0.022,-2.286 0.759,-3.063 0.542,-0.539 1.215,-0.841 2.093,-0.841 0.879,0 1.541,0.302 2.083,0.841 C 0.011,-2.286 0,-1.327 0,0 z m -1.508,0 c 0,-1.478 -0.086,-1.833 -0.379,-2.157 -0.217,-0.248 -0.554,-0.41 -0.966,-0.41 -0.412,0 -0.759,0.162 -0.976,0.41 -0.293,0.324 -0.369,0.679 -0.369,2.157 0,1.477 0.076,1.833 0.369,2.157 0.217,0.248 0.564,0.41 0.976,0.41 0.412,0 0.749,-0.162 0.966,-0.41 C -1.594,1.833 -1.508,1.477 -1.508,0"
         style="fill:#ffffff;fill-opacity:1;fill-rule:evenodd;stroke:none"
         id="path374" />
    </g>
    <g
       id="g376"
       transform="matrix(4.5485416,0,0,-4.5485416,149.50862,358.07207)">
      <path
         inkscape:connector-curvature="0"
         d="m 0,0 0,7.679 -1.508,0 0,-4.702 -3.059,4.702 -1.345,0 0,-7.679 1.508,0 0,4.713 L -1.345,0 0,0"
         style="fill:#ffffff;fill-opacity:1;fill-rule:nonzero;stroke:none"
         id="path378" />
    </g>
    <g
       id="g380"
       transform="matrix(4.5485416,0,0,-4.5485416,165.63774,329.22977)">
      <path
         inkscape:connector-curvature="0"
         d="m 0,0 0,1.337 -1.475,0 0,-2.448 L 0,0"
         style="fill:#ffffff;fill-opacity:1;fill-rule:nonzero;stroke:none"
         id="path382" />
    </g>
    <g
       id="g384"
       transform="matrix(4.5485416,0,0,-4.5485416,200.16572,329.22977)">
      <path
         inkscape:connector-curvature="0"
         d="m 0,0 0,1.337 -5.543,0 0,-1.337 2.018,0 0,-6.341 1.507,0 0,6.341 L 0,0"
         style="fill:#ffffff;fill-opacity:1;fill-rule:nonzero;stroke:none"
         id="path386" />
    </g>
    <g
       id="g388"
       transform="matrix(4.5485416,0,0,-4.5485416,190.15893,413.06849)">
      <path
         inkscape:connector-curvature="0"
         d="M 0,0 4.743,0 7.818,-3.834 4.743,-7.672 0,-7.672 0,0"
         style="fill:#ee3224;fill-opacity:1;fill-rule:nonzero;stroke:none"
         id="path390" />
    </g>
    <g
       id="g392"
       transform="matrix(4.5485416,0,0,-4.5485416,177.27291,413.06849)">
      <path
         inkscape:connector-curvature="0"
         d="M 0,0 3.988,0 7.063,-3.834 3.97,-7.67 -0.03,-7.672 0,0"
         style="fill:#ffffff;fill-opacity:1;fill-rule:nonzero;stroke:none"
         id="path394" />
    </g>
    <g
       id="g396"
       transform="matrix(4.5485416,0,0,-4.5485416,162.78126,413.06849)">
      <path
         inkscape:connector-curvature="0"
         d="M 0,0 3.587,0 6.662,-3.834 3.587,-7.672 0,-7.672 0,0"
         style="fill:#ee3224;fill-opacity:1;fill-rule:nonzero;stroke:none"
         id="path398" />
    </g>
    <g
       id="g400"
       transform="matrix(4.5485416,0,0,-4.5485416,162.78126,413.06849)">
      <path
         inkscape:connector-curvature="0"
         d="M 0,0 3.075,-3.834 0,-7.672 0,0"
         style="fill:#ffffff;fill-opacity:1;fill-rule:nonzero;stroke:none"
         id="path402" />
    </g>
  </g>
</svg>
